<?xml version="1.0" encoding="utf-8"?>
<!-- Generator: Adobe Illustrator 22.1.0, SVG Export Plug-In . SVG Version: 6.00 Build 0)  -->
<svg version="1.1" id="name" xmlns="http://www.w3.org/2000/svg" xmlns:xlink="http://www.w3.org/1999/xlink" x="0px" y="0px"
	 viewBox="0 0 100 100" style="enable-background:new 0 0 100 100;" xml:space="preserve">
<style type="text/css">
	.st0{fill:none;}
</style>
<g>
	<polygon points="36.5,49.3 36.5,50.8 38,50.8 38,52.3 39.5,52.3 39.5,53.8 41,53.8 41,55.3 38,55.3 38,53.8 36.5,53.8 36.5,52.3 
		35,52.3 35,50.8 33.5,50.8 33.5,49.3 35,49.3 35,47.8 36.5,47.8 36.5,46.3 38,46.3 38,44.8 41,44.8 41,46.3 39.5,46.3 39.5,47.8 
		38,47.8 38,49.3 	"/>
	<path d="M54,50L54,50c0,0.4,0.3,0.8,0.8,0.8h4.5c0.4,0,0.7,0.3,0.7,0.8v3c0,0.4-0.3,0.8-0.7,0.8h-16c-0.4,0-0.8-0.3-0.8-0.8v-6
		c0-0.4,0.3-0.8,0.8-0.8h7.5c0.4,0,0.7,0.3,0.7,0.8l0,0c0,0.4-0.3,0.8-0.7,0.8h-6c-0.4,0-0.8,0.3-0.8,0.8v3c0,0.4,0.3,0.8,0.8,0.8
		h13c0.4,0,0.7-0.3,0.7-0.8l0,0c0-0.4-0.3-0.8-0.7-0.8h-4.5c-0.4,0-0.8-0.3-0.8-0.8v-3c0-0.4,0.3-0.8,0.8-0.8h6
		c0.4,0,0.7,0.3,0.7,0.8l0,0c0,0.4-0.3,0.8-0.7,0.8h-4.5C54.3,49.3,54,49.6,54,50z"/>
	<polygon points="69,49.3 69,50.8 67.5,50.8 67.5,52.3 66,52.3 66,53.8 64.5,53.8 64.5,55.3 61.5,55.3 61.5,53.8 63,53.8 63,52.3 
		64.5,52.3 64.5,50.8 66,50.8 66,49.3 64.5,49.3 64.5,47.8 63,47.8 63,46.3 61.5,46.3 61.5,44.8 64.5,44.8 64.5,46.3 66,46.3 
		66,47.8 67.5,47.8 67.5,49.3 	"/>
	<line class="st0" x1="42.5" y1="53.8" x2="42.5" y2="49.3"/>
	<line class="st0" x1="62" y1="52.3" x2="62" y2="53.8"/>
</g>
</svg>
